<?xml version="1.0" standalone="no"?>
<!DOCTYPE svg PUBLIC "-//W3C//DTD SVG 20010904//EN"
 "http://www.w3.org/TR/2001/REC-SVG-20010904/DTD/svg10.dtd">
<svg version="1.0" xmlns="http://www.w3.org/2000/svg"
 width="500.000000pt" height="500.000000pt" viewBox="0 0 500.000000 500.000000"
 preserveAspectRatio="xMidYMid meet">

<g transform="translate(0.000000,500.000000) scale(0.100000,-0.100000)"
fill="#000000" stroke="none">
<path d="M1740 4295 c-52 -8 -131 -25 -175 -39 -44 -14 -84 -26 -89 -26 -5 0
-48 -20 -95 -44 -97 -49 -219 -128 -393 -254 -106 -75 -118 -88 -118 -114 0
-27 2 -29 23 -23 12 4 47 9 77 9 30 1 67 8 82 15 22 11 33 11 57 2 25 -11 35
-10 76 13 38 20 52 23 71 14 17 -8 31 -7 53 2 16 6 39 9 51 5 13 -4 33 -2 46
6 19 10 29 10 48 0 19 -11 27 -10 44 0 18 12 26 11 49 -2 18 -11 35 -14 48 -9
11 4 55 6 99 4 43 -2 87 1 96 6 13 7 21 5 30 -5 8 -9 26 -15 45 -13 18 1 40
-4 48 -10 9 -7 26 -10 40 -7 29 8 120 -20 140 -43 9 -10 19 -33 24 -52 8 -29
14 -35 34 -33 13 1 70 5 127 9 67 5 101 11 99 18 -2 6 -14 13 -28 14 -34 5
-55 23 -89 73 -29 43 -40 99 -20 99 6 0 23 -12 38 -28 77 -78 111 -88 161 -46
54 45 35 116 -40 154 -20 11 -39 25 -41 32 -5 13 -63 77 -168 186 -56 57 -74
70 -125 85 -72 20 -187 21 -325 2z m299 -214 c26 -17 4 -41 -38 -41 -48 0 -59
13 -29 34 25 18 46 20 67 7z"/>
<path d="M2791 4294 c-96 -26 -151 -86 -151 -166 0 -73 -11 -103 -45 -125 -31
-21 -32 -23 -22 -60 8 -30 6 -51 -7 -95 -14 -51 -22 -61 -66 -90 -27 -17 -47
-35 -45 -38 4 -6 67 -12 239 -23 26 -2 31 2 39 33 5 19 15 42 24 52 20 23 111
51 140 43 14 -3 31 0 40 7 8 6 30 11 48 10 19 -2 37 4 45 13 9 10 17 12 30 5
9 -5 53 -8 96 -6 44 2 88 0 99 -4 12 -5 30 -2 47 8 23 13 31 14 51 3 20 -11
28 -11 45 0 17 11 25 11 45 0 14 -7 34 -10 47 -6 12 4 35 1 51 -5 22 -9 36
-10 53 -2 19 9 32 6 70 -14 41 -22 51 -24 79 -13 28 10 39 9 66 -6 23 -11 44
-15 68 -10 19 3 49 1 66 -4 18 -6 45 -7 61 -3 29 8 26 10 -101 104 -180 133
-331 232 -434 284 -47 24 -90 44 -95 44 -5 0 -45 12 -89 26 -154 49 -387 67
-494 38z"/>
<path d="M2205 3362 c-1 -2 -31 -6 -66 -9 -35 -3 -66 -7 -68 -9 -3 -2 8 -17
23 -32 40 -43 27 -62 -41 -62 -80 0 -128 -30 -117 -74 5 -23 7 -24 33 -8 16 9
35 12 45 9 17 -7 17 -9 3 -30 -14 -21 -19 -22 -228 -25 -155 -2 -215 -6 -221
-15 -11 -17 -10 -2101 1 -2113 5 -5 11 -34 14 -64 7 -82 21 -123 63 -186 55
-81 171 -145 289 -158 6 -1 24 -5 41 -9 17 -4 62 -10 100 -13 38 -3 89 -7 114
-10 25 -2 59 -6 75 -8 43 -4 117 -25 141 -41 17 -11 26 -11 45 -1 46 24 94 38
139 42 25 2 63 6 85 9 22 2 73 7 113 10 41 3 81 9 90 14 9 5 28 9 42 9 34 0
148 39 181 63 15 10 32 19 37 19 12 0 70 71 90 110 23 42 42 113 42 156 0 22
5 45 10 50 7 7 9 370 8 1070 l-3 1059 -260 5 -260 5 -3 24 c-2 12 -1 34 2 47
6 23 10 24 96 24 50 0 90 4 90 9 0 6 -12 30 -27 54 -27 44 -30 45 -98 56 -150
23 -601 40 -620 23z m266 -73 c17 -34 19 -46 10 -66 -15 -33 -6 -44 25 -33 36
14 84 12 90 -3 3 -8 0 -26 -5 -40 l-11 -27 -237 2 -238 3 2 29 c4 52 50 61
108 22 20 -14 43 -22 51 -19 19 7 18 52 -1 59 -24 10 -17 34 10 34 13 0 52 18
86 40 34 22 68 40 75 40 8 0 23 -19 35 -41z m247 -119 c41 -25 37 -44 -11 -48
-32 -3 -38 0 -47 23 -6 14 -10 31 -10 36 0 15 33 10 68 -11z m-78 -580 l5
-275 263 -3 262 -2 0 -205 c0 -113 -1 -206 -2 -207 -2 -1 -120 -5 -263 -8
l-260 -5 -5 -360 -5 -360 -45 -22 c-35 -16 -44 -26 -42 -42 2 -12 -6 -33 -17
-47 -11 -15 -18 -31 -14 -37 5 -8 8 -7 11 1 2 7 8 12 13 12 4 0 6 -7 3 -15
-10 -25 24 -17 42 10 20 31 42 32 49 3 3 -13 4 -86 3 -163 l-3 -140 -205 0
-205 0 -3 158 c-3 187 3 197 72 126 24 -24 64 -62 89 -85 l47 -40 40 37 c50
47 51 56 1 27 -45 -26 -61 -21 -124 39 -47 43 -42 53 9 18 20 -14 42 -24 48
-22 15 5 19 53 7 74 -9 16 -10 14 -11 -9 0 -38 -24 -36 -62 4 -20 22 -28 38
-24 53 5 18 -1 24 -34 35 -22 7 -45 19 -50 25 -6 7 -11 156 -12 369 l-3 358
-251 -1 c-206 -2 -253 1 -263 12 -8 10 -11 70 -9 208 l3 194 263 3 262 2 0
273 c0 151 3 277 7 281 4 3 97 5 207 4 l201 -3 5 -275z m-362 -1489 c3 -8 -1
-12 -9 -9 -7 2 -15 10 -17 17 -3 8 1 12 9 9 7 -2 15 -10 17 -17z m332 4 c0 -8
-4 -15 -10 -15 -5 0 -10 7 -10 15 0 8 5 15 10 15 6 0 10 -7 10 -15z"/>
<path d="M2321 2774 c-12 -15 -21 -31 -21 -35 0 -5 -6 -9 -13 -9 -28 0 -47
-36 -47 -89 0 -49 3 -54 54 -106 l54 -55 86 0 c81 0 89 2 111 26 14 15 25 31
25 35 0 4 14 16 30 26 17 9 30 23 30 30 0 15 -22 17 -35 4 -6 -5 -28 -11 -50
-13 l-40 -3 0 55 0 55 40 -3 c22 -2 44 -8 50 -13 14 -14 35 -11 35 6 0 8 -4
15 -8 15 -8 0 -26 17 -83 79 -17 18 -31 21 -108 21 -85 0 -91 -1 -110 -26z
m199 -19 c7 -9 11 -16 9 -18 -2 -1 -13 -7 -24 -13 -17 -9 -20 -23 -23 -83 -3
-68 -2 -72 23 -83 28 -13 30 -19 13 -36 -12 -12 -134 -17 -162 -6 -23 9 -19
29 9 48 28 18 34 46 10 46 -8 0 -15 -7 -15 -16 0 -9 -6 -14 -12 -12 -14 5 -23
81 -13 107 6 14 8 14 21 -3 11 -16 17 -17 27 -7 10 10 7 17 -15 36 -50 43 -37
53 68 54 53 1 75 -3 84 -14z m-222 -115 c-3 -56 -18 -69 -32 -29 -11 33 0 79
20 79 12 0 14 -10 12 -50z"/>
<path d="M2382 1714 c-30 -21 -31 -93 -2 -119 18 -16 20 -31 20 -142 0 -80 4
-122 10 -118 13 8 13 241 -1 266 -9 17 -7 19 14 14 31 -8 51 16 43 50 -5 20
-13 25 -38 25 -24 0 -29 3 -21 11 15 15 63 3 63 -16 0 -8 5 -15 10 -15 6 0 10
-7 10 -15 0 -8 5 -15 10 -15 19 0 10 41 -15 65 -28 29 -70 32 -103 9z m5 -71
c-3 -10 -5 -4 -5 12 0 17 2 24 5 18 2 -7 2 -21 0 -30z"/>
<path d="M2462 1610 c-15 -24 -17 -210 -2 -210 6 0 10 38 10 94 0 53 4 98 10
101 12 7 14 35 2 35 -4 0 -13 -9 -20 -20z"/>
<path d="M2448 1313 c-8 -17 4 -253 13 -253 5 0 9 58 9 130 0 75 -4 130 -9
130 -6 0 -11 -3 -13 -7z"/>
<path d="M2399 1255 c-7 -33 3 -145 12 -139 12 7 12 124 0 143 -7 11 -10 11
-12 -4z"/>
<path d="M2455 1007 c-4 -10 -5 -21 -1 -24 10 -10 18 4 13 24 -4 17 -4 17 -12
0z"/>
</g>
</svg>
