<?xml version="1.0" standalone="no"?>
<!DOCTYPE svg PUBLIC "-//W3C//DTD SVG 20010904//EN"
 "http://www.w3.org/TR/2001/REC-SVG-20010904/DTD/svg10.dtd">
<svg version="1.0" xmlns="http://www.w3.org/2000/svg"
 width="225.000000pt" height="225.000000pt" viewBox="0 0 225.000000 225.000000"
 preserveAspectRatio="xMidYMid meet">

<g transform="translate(0.000000,225.000000) scale(0.100000,-0.100000)"
fill="#000000" stroke="none">
<path d="M975 2239 c-361 -53 -676 -274 -839 -589 -100 -195 -130 -331 -123
-560 3 -125 9 -174 30 -251 87 -322 311 -589 611 -729 144 -68 248 -91 429
-97 182 -6 267 4 396 49 47 16 95 32 106 35 11 4 49 24 85 46 306 186 492 445
556 776 21 104 20 304 -1 415 -109 584 -669 989 -1250 905z m135 -134 c0 -93
-2 -105 -17 -105 -40 1 -154 30 -192 50 -43 21 -121 86 -121 100 0 8 132 46
185 53 17 2 56 5 88 6 l57 1 0 -105z m-360 30 c0 -2 -39 -42 -86 -87 -88 -85
-177 -207 -222 -307 -14 -31 -26 -57 -27 -58 -2 -4 -149 39 -168 49 -16 8 -13
15 27 66 91 119 225 227 374 303 71 36 102 46 102 34z m73 -80 c22 -19 46 -35
53 -35 25 0 24 -20 -4 -77 -31 -62 -87 -221 -98 -280 l-7 -36 -76 7 c-83 8
-221 32 -229 41 -8 8 42 107 95 190 45 70 192 225 214 225 6 0 29 -16 52 -35z
m225 -81 l62 -7 0 -183 0 -183 -82 5 c-46 2 -116 7 -155 10 l-73 6 6 26 c17
72 60 195 92 265 33 73 37 78 61 73 14 -3 54 -9 89 -12z m-726 -306 c69 -20
77 -25 71 -43 -14 -48 -24 -66 -35 -69 -7 -2 -35 -9 -63 -15 -59 -14 -88 -37
-80 -63 4 -10 3 -38 -1 -63 -5 -37 -12 -49 -35 -61 -32 -16 -37 -35 -14 -54
21 -17 19 -30 -5 -30 -11 0 -20 -7 -20 -15 0 -9 -12 -20 -26 -25 -24 -10 -26
-13 -19 -55 l6 -45 -32 0 -31 0 7 78 c14 156 42 256 111 401 40 82 48 92 67
87 12 -3 57 -15 99 -28z m1013 -76 c0 -35 2 -37 33 -40 22 -2 53 7 93 28 l61
31 34 -26 c77 -59 133 -64 159 -16 7 15 23 27 35 28 13 1 32 11 44 22 37 34
76 21 76 -25 0 -15 8 -24 25 -28 43 -11 46 -112 4 -184 -29 -51 -25 -92 17
-146 36 -48 42 -61 43 -104 1 -32 19 -19 38 29 17 44 65 89 93 89 37 0 70 -22
70 -47 0 -27 -12 -30 -30 -8 -20 24 -50 14 -83 -28 -29 -35 -30 -40 -18 -72 9
-26 9 -40 1 -55 -6 -12 -10 -26 -7 -33 9 -27 29 40 28 94 0 51 2 59 18 59 62
0 58 -115 -10 -237 -33 -61 -53 -75 -76 -52 -7 7 -12 -5 -15 -42 -3 -32 -12
-57 -22 -64 -12 -9 -16 -29 -16 -88 0 -70 -2 -79 -30 -110 -31 -36 -85 -57
-144 -57 -49 0 -48 24 4 75 38 37 39 40 20 47 -33 12 -43 54 -35 156 4 56 3
92 -3 92 -6 0 -33 15 -61 34 -37 25 -48 30 -41 16 6 -11 19 -24 30 -30 23 -12
52 -64 42 -75 -13 -13 -77 -39 -112 -46 -34 -6 -34 -6 11 -8 58 -1 95 -29 109
-82 14 -52 -8 -91 -68 -120 -35 -17 -54 -20 -96 -15 -104 12 -186 55 -186 98
0 10 -9 32 -21 47 -17 23 -19 32 -10 50 19 34 47 26 65 -19 13 -33 21 -40 42
-40 15 0 32 8 39 17 12 15 9 19 -18 28 -48 15 -41 39 13 46 25 3 39 7 33 7
-19 3 -16 26 8 56 l21 27 -40 -7 c-27 -4 -50 -1 -70 9 -29 14 -30 13 -41 -9
-12 -28 -33 -31 -55 -8 -21 20 -21 19 10 72 37 62 20 77 -40 34 -55 -40 -76
-41 -76 -4 0 15 -6 47 -14 72 -13 46 -14 147 -1 341 9 130 17 163 61 226 41
60 59 59 59 -5z m-735 18 c80 -12 147 -24 149 -26 2 -2 -2 -40 -9 -84 -12 -78
-14 -81 -36 -76 -49 13 -74 26 -74 40 0 20 -37 45 -59 39 -9 -2 -25 5 -35 16
-11 12 -23 21 -28 21 -19 0 -78 53 -78 70 0 19 9 32 19 25 4 -2 72 -13 151
-25z m457 -40 l53 0 0 -220 0 -220 -81 0 -81 0 7 33 c4 17 13 39 21 48 8 8 14
31 14 51 0 27 -6 38 -25 48 -31 17 -33 40 -2 40 22 0 22 0 -3 15 -14 8 -32 17
-40 21 -8 4 -28 18 -43 31 -29 23 -57 30 -57 14 0 -10 -40 -22 -50 -16 -4 3
-4 26 1 52 5 27 11 63 14 82 l6 34 106 -7 c58 -3 130 -6 160 -6z m-949 -504
c2 -10 -3 -23 -12 -28 -25 -14 -19 -30 21 -60 53 -40 80 -34 98 22 8 24 8 24
16 5 6 -16 8 -14 8 12 2 55 18 45 25 -14 4 -32 3 -59 -3 -62 -5 -3 -12 -23
-16 -44 -4 -20 -11 -37 -16 -37 -5 0 -9 -7 -9 -15 0 -7 -6 -18 -14 -22 -9 -5
-13 -23 -12 -47 1 -33 -3 -41 -21 -45 -17 -5 -20 -10 -13 -21 5 -8 7 -26 4
-40 l-6 -25 20 24 c19 23 27 24 62 2 8 -6 26 -12 40 -15 23 -5 56 -52 42 -60
-25 -14 -113 -36 -122 -31 -15 9 -63 109 -93 190 -28 79 -53 191 -62 278 l-5
58 32 -3 c23 -2 34 -9 36 -22z m1000 -173 l-3 -198 -154 -7 c-109 -6 -157 -4
-162 3 -3 6 -12 52 -18 103 -7 50 -14 109 -17 132 -5 38 -4 42 24 53 17 7 54
35 83 61 l54 49 98 1 97 0 -2 -197z m-379 -50 c7 -60 15 -121 17 -138 l5 -30
-146 -23 c-81 -13 -152 -25 -159 -28 -7 -3 -13 2 -13 10 0 8 5 14 10 13 6 -1
12 17 13 41 2 24 11 53 19 65 8 12 15 34 15 49 0 19 12 36 44 63 39 31 144 83
171 85 6 0 16 -46 24 -107z m381 -387 l0 -203 -57 -6 c-32 -3 -67 -9 -78 -12
-23 -7 -39 17 -90 135 -36 85 -89 259 -80 268 5 6 153 18 253 20 l52 2 0 -204z
m-350 180 c0 -3 16 -57 35 -120 28 -92 72 -200 123 -298 2 -5 -3 -8 -11 -8 -9
0 -37 -16 -63 -36 -43 -33 -49 -35 -72 -22 -48 25 -161 146 -217 232 -54 83
-110 194 -102 203 4 3 189 36 262 46 17 2 33 5 38 6 4 0 7 -1 7 -3z m-318
-128 c70 -146 166 -274 268 -353 33 -27 58 -50 56 -53 -3 -2 -48 17 -101 42
-106 50 -193 108 -279 186 -60 56 -156 171 -156 188 0 6 33 21 73 32 39 12 77
23 82 25 6 2 13 4 16 4 4 1 22 -32 41 -71z m668 -379 l0 -92 -74 6 c-86 8
-226 37 -226 48 0 15 74 72 119 91 38 16 104 30 169 37 9 1 12 -23 12 -90z"/>
<path d="M1240 1390 c0 -25 -4 -63 -8 -85 -10 -54 -4 -95 14 -95 17 0 19 -31
2 -48 -9 -9 3 -12 58 -12 66 0 70 -1 86 -30 9 -17 21 -30 26 -30 5 0 15 24 22
53 17 73 6 94 -58 102 -89 12 -99 16 -111 41 -14 32 -14 51 2 57 9 3 6 15 -10
48 l-22 44 -1 -45z"/>
<path d="M1522 1187 c29 -41 53 -49 143 -51 53 -1 88 -6 98 -15 15 -12 17 -11
17 3 0 9 8 16 17 16 13 0 8 9 -19 37 l-37 37 -119 0 -120 1 20 -28z"/>
</g>
</svg>
